<?xml version="1.0" encoding="UTF-8"?>
<svg xmlns="http://www.w3.org/2000/svg" xmlns:xlink="http://www.w3.org/1999/xlink" viewBox="0 0 48 48" width="48px" height="48px">
<g id="surface17463549">
<path style=" stroke:none;fill-rule:nonzero;fill:rgb(100%,100%,100%);fill-opacity:1;" d="M 20.5 46 C 19.121094 46 18 44.878906 18 43.5 L 18 26 L 13.550781 26.003906 C 12.183594 26.003906 11.0625 24.894531 11.050781 23.527344 L 11.019531 20.523438 C 11.015625 19.851562 11.269531 19.21875 11.742188 18.742188 C 12.214844 18.261719 12.847656 18 13.519531 18 L 18 18 L 18 13.5 C 18 6.753906 21.441406 3.039062 27.691406 3.039062 C 30.164062 3.039062 32.320312 3.214844 32.339844 3.214844 C 33.304688 3.300781 34.03125 4.09375 34.03125 5.0625 L 34.03125 9.632812 C 34.03125 10.652344 33.199219 11.484375 32.179688 11.484375 L 29.269531 11.484375 C 28.054688 11.484375 27.0625 12.476562 27.0625 13.695312 L 27.007812 18 L 31.445312 18 C 32.15625 18 32.835938 18.304688 33.3125 18.839844 C 33.785156 19.371094 34.011719 20.082031 33.925781 20.789062 L 33.578125 23.789062 C 33.433594 25.050781 32.363281 26 31.097656 26 L 27 26 L 27 43.5 C 27 44.878906 25.878906 46 24.5 46 Z M 20.5 46 "/>
</g>
</svg>
